<?xml version="1.0" encoding="UTF-8" standalone="no"?> <!-- Created with Vectornator for iOS (http://vectornator.io/) --><!DOCTYPE svg PUBLIC "-//W3C//DTD SVG 1.1//EN" "http://www.w3.org/Graphics/SVG/1.1/DTD/svg11.dtd">
<svg height="100%" style="fill-rule:nonzero;clip-rule:evenodd;stroke-linecap:round;stroke-linejoin:round;" xmlns:xlink="http://www.w3.org/1999/xlink" xmlns="http://www.w3.org/2000/svg" xml:space="preserve" width="100%" xmlns:vectornator="http://vectornator.io" version="1.1" viewBox="0 0 841.995 595.35">
<metadata>
<vectornator:setting key="DimensionsVisible" value="1"/>
<vectornator:setting key="PencilOnly" value="0"/>
<vectornator:setting key="SnapToPoints" value="0"/>
<vectornator:setting key="OutlineMode" value="0"/>
<vectornator:setting key="CMYKEnabledKey" value="0"/>
<vectornator:setting key="RulersVisible" value="1"/>
<vectornator:setting key="SnapToEdges" value="0"/>
<vectornator:setting key="GuidesVisible" value="1"/>
<vectornator:setting key="DisplayWhiteBackground" value="0"/>
<vectornator:setting key="doHistoryDisabled" value="0"/>
<vectornator:setting key="SnapToGuides" value="1"/>
<vectornator:setting key="TimeLapseWatermarkDisabled" value="0"/>
<vectornator:setting key="Units" value="Points"/>
<vectornator:setting key="DynamicGuides" value="0"/>
<vectornator:setting key="IsolateActiveLayer" value="0"/>
<vectornator:setting key="SnapToGrid" value="0"/>
</metadata>
<defs/>
<g id="Depressivo tav 1" vectornator:layerName="Depressivo tav 1">
<path stroke="#ffffff" stroke-width="4" d="M161.175+215.275C161.175+199.405+174.014+186.54+189.853+186.54C205.691+186.54+218.53+199.405+218.53+215.275C218.53+231.145+205.691+244.01+189.853+244.01C174.014+244.01+161.175+231.145+161.175+215.275Z" fill="none" stroke-linecap="round" opacity="1" stroke-linejoin="round"/>
<path stroke="#ffffff" stroke-width="4" d="M174.88+242.632C174.88+242.632+167.244+246.703+164.328+261.395C163.817+263.966+162.815+267.81+162.707+270.997C161.985+292.393+161.875+319.913+161.875+319.913" fill="none" stroke-linecap="round" opacity="1" stroke-linejoin="round"/>
<path stroke="#ffffff" stroke-width="4" d="M204.153+243.2C204.153+243.2+211.782+247.227+214.695+261.761C215.205+264.305+216.206+268.108+216.314+271.261C217.035+292.428+217.145+319.654+217.145+319.654" fill="none" stroke-linecap="round" opacity="1" stroke-linejoin="round"/>
<path stroke="#ffffff" stroke-width="4" d="M162.109+319.73L217.099+319.37" fill="none" stroke-linecap="round" opacity="1" stroke-linejoin="round"/>
<path stroke="#ffffff" stroke-width="6" d="M164.981+268.348C164.981+268.348+167.278+275.116+168.846+282.415C170.414+289.715+177.613+293.894+177.613+293.894" fill="none" stroke-linecap="round" opacity="1" stroke-linejoin="round"/>
<path stroke="#ffffff" stroke-width="6" d="M213.395+266.174C213.395+266.174+210.914+273.45+209.06+281.363C207.206+289.277+200.448+293.349+200.448+293.349" fill="none" stroke-linecap="round" opacity="1" stroke-linejoin="round"/>
<path stroke="#ffffff" stroke-width="3" d="M170.843+212.121C170.843+212.121+172.157+214.343+174.022+215.824C175.333+216.865+176.935+217.333+178.467+217.301C180.226+217.265+181.745+217.29+183.061+216.002C184.523+214.572+185.689+211.816+185.689+211.816" fill="none" stroke-linecap="round" opacity="1" stroke-linejoin="round"/>
<path stroke="#ffffff" stroke-width="3" d="M194.781+211.642C194.781+211.642+196.095+213.864+197.959+215.345C199.271+216.387+200.873+216.854+202.405+216.823C204.164+216.787+205.683+216.812+206.999+215.524C208.461+214.094+209.627+211.338+209.627+211.338" fill="none" stroke-linecap="round" opacity="1" stroke-linejoin="round"/>
<path stroke="#ffffff" stroke-width="3" d="M177.493+230.777C177.493+230.777+183.711+226.724+189.706+226.695C195.701+226.666+201.472+230.66+201.472+230.66" fill="none" stroke-linecap="round" opacity="1" stroke-linejoin="round"/>
<path stroke="#ffffff" stroke-width="6" d="M172.114+322.472L172.282+345.509" fill="none" stroke-linecap="round" opacity="1" stroke-linejoin="round"/>
<path stroke="#ffffff" stroke-width="6" d="M207.039+322.362L207.207+345.399" fill="none" stroke-linecap="round" opacity="1" stroke-linejoin="round"/>
<path stroke="#ffffff" stroke-width="3" d="M142.196+191.479L158.252+204.749" fill="none" stroke-linecap="round" opacity="1" stroke-linejoin="round"/>
<path stroke="#ffffff" stroke-width="3" d="M158.062+204.309L147.941+189.117" fill="none" stroke-linecap="round" opacity="1" stroke-linejoin="round"/>
<path stroke="#ffffff" stroke-width="3" d="M141.7+190.448L131.273+199.706" fill="none" stroke-linecap="round" opacity="1" stroke-linejoin="round"/>
<path stroke="#ffffff" stroke-width="3" d="M130.26+199.808L123.407+187.723" fill="none" stroke-linecap="round" opacity="1" stroke-linejoin="round"/>
<path stroke="#ffffff" stroke-width="3" d="M122.84+187.638L110.393+190.915" fill="none" stroke-linecap="round" opacity="1" stroke-linejoin="round"/>
<path stroke="#ffffff" stroke-width="3" d="M110.38+191.288L104.334+179.512" fill="none" stroke-linecap="round" opacity="1" stroke-linejoin="round"/>
<path stroke="#ffffff" stroke-width="3" d="M104.137+178.833L94.2607+174.304" fill="none" stroke-linecap="round" opacity="1" stroke-linejoin="round"/>
<path stroke="#ffffff" stroke-width="3" d="M93.1328+173.904L99.6775+162.928" fill="none" stroke-linecap="round" opacity="1" stroke-linejoin="round"/>
<path stroke="#ffffff" stroke-width="3" d="M100.504+162.515L94.182+148.848" fill="none" stroke-linecap="round" opacity="1" stroke-linejoin="round"/>
<path stroke="#ffffff" stroke-width="3" d="M94.6542+148.142L106.144+137.419" fill="none" stroke-linecap="round" opacity="1" stroke-linejoin="round"/>
<path stroke="#ffffff" stroke-width="3" d="M149.07+188.5L163.303+187.375" fill="none" stroke-linecap="round" opacity="1" stroke-linejoin="round"/>
<path stroke="#ffffff" stroke-width="3" d="M164.141+186.985L168.43+178.353" fill="none" stroke-linecap="round" opacity="1" stroke-linejoin="round"/>
<path stroke="#ffffff" stroke-width="3" d="M169.335+178.793L178.647+182.549" fill="none" stroke-linecap="round" opacity="1" stroke-linejoin="round"/>
<path stroke="#ffffff" stroke-width="3" d="M179.972+183.162L188.877+176.435" fill="none" stroke-linecap="round" opacity="1" stroke-linejoin="round"/>
<path stroke="#ffffff" stroke-width="3" d="M189.664+176.448L198.57+182.896" fill="none" stroke-linecap="round" opacity="1" stroke-linejoin="round"/>
<path stroke="#ffffff" stroke-width="3" d="M199.711+183.269L210.649+175.956" fill="none" stroke-linecap="round" opacity="1" stroke-linejoin="round"/>
<path stroke="#ffffff" stroke-width="3" d="M211.541+176.195L217.863+185.36" fill="none" stroke-linecap="round" opacity="1" stroke-linejoin="round"/>
<path stroke="#ffffff" stroke-width="3" d="M218.885+185.588L226.179+177.366" fill="none" stroke-linecap="round" opacity="1" stroke-linejoin="round"/>
<path stroke="#ffffff" stroke-width="3" d="M227.346+176.302L237.248+178.18" fill="none" stroke-linecap="round" opacity="1" stroke-linejoin="round"/>
<path stroke="#ffffff" stroke-width="3" d="M238.022+177.781L233.156+168.869" fill="none" stroke-linecap="round" opacity="1" stroke-linejoin="round"/>
<path stroke="#ffffff" stroke-width="3" d="M233.431+167.99L242.612+159.185" fill="none" stroke-linecap="round" opacity="1" stroke-linejoin="round"/>
<path stroke="#ffffff" stroke-width="3" d="M243.513+158.437L231.232+156.257" fill="none" stroke-linecap="round" opacity="1" stroke-linejoin="round"/>
<path stroke="#ffffff" stroke-width="3" d="M230.885+155.411L240.568+144.177" fill="none" stroke-linecap="round" opacity="1" stroke-linejoin="round"/>
<path stroke="#ffffff" stroke-width="3" d="M240.028+143.347L225.247+142.374" fill="none" stroke-linecap="round" opacity="1" stroke-linejoin="round"/>
<path stroke="#ffffff" stroke-width="3" d="M225.247+142.414L231.726+130.532" fill="none" stroke-linecap="round" opacity="1" stroke-linejoin="round"/>
<path stroke="#ffffff" stroke-width="3" d="M231.994+129.578L217.569+131.686" fill="none" stroke-linecap="round" opacity="1" stroke-linejoin="round"/>
<path stroke="#ffffff" stroke-width="3" d="M217.338+131.425L210.702+120.529" fill="none" stroke-linecap="round" opacity="1" stroke-linejoin="round"/>
<path stroke="#ffffff" stroke-width="3" d="M209.901+120.766L203.371+127.218" fill="none" stroke-linecap="round" opacity="1" stroke-linejoin="round"/>
<path stroke="#ffffff" stroke-width="3" d="M202.557+127.029L191.054+119.077" fill="none" stroke-linecap="round" opacity="1" stroke-linejoin="round"/>
<path stroke="#ffffff" stroke-width="3" d="M190.782+118.919L187.379+129.717" fill="none" stroke-linecap="round" opacity="1" stroke-linejoin="round"/>
<path stroke="#ffffff" stroke-width="3" d="M186.962+130.399L178.201+117.305" fill="none" stroke-linecap="round" opacity="1" stroke-linejoin="round"/>
<path stroke="#ffffff" stroke-width="3" d="M177.939+117.665L168.679+127.815" fill="none" stroke-linecap="round" opacity="1" stroke-linejoin="round"/>
<path stroke="#ffffff" stroke-width="3" d="M168.797+128.441L155.799+119.649" fill="none" stroke-linecap="round" opacity="1" stroke-linejoin="round"/>
<path stroke="#ffffff" stroke-width="3" d="M155.734+120.009L144.704+130.785" fill="none" stroke-linecap="round" opacity="1" stroke-linejoin="round"/>
<path stroke="#ffffff" stroke-width="3" d="M144.481+130.785L134.828+124.578" fill="none" stroke-linecap="round" opacity="1" stroke-linejoin="round"/>
<path stroke="#ffffff" stroke-width="3" d="M133.896+123.606L128.414+134.622" fill="none" stroke-linecap="round" opacity="1" stroke-linejoin="round"/>
<path stroke="#ffffff" stroke-width="3" d="M128.335+134.822L117.935+127.176" fill="none" stroke-linecap="round" opacity="1" stroke-linejoin="round"/>
<path stroke="#ffffff" stroke-width="3" d="M116.938+127.455L115.088+138.232" fill="none" stroke-linecap="round" opacity="1" stroke-linejoin="round"/>
<path stroke="#ffffff" stroke-width="3" d="M115.482+138.511L107.022+136.793" fill="none" stroke-linecap="round" opacity="1" stroke-linejoin="round"/>
<path stroke="#ffffff" stroke-width="3" d="M120.059+154.19C120.059+154.19+116.452+151.888+114.147+153.086C112.383+154.002+111.588+158.065+112.518+160.197C114.662+165.116+128.637+173.864+128.637+173.864" fill="none" stroke-linecap="round" opacity="1" stroke-linejoin="round"/>
<path stroke="#ffffff" stroke-width="3" d="M122.105+155.149L121.45+160.211" fill="none" stroke-linecap="round" opacity="1" stroke-linejoin="round"/>
<path stroke="#ffffff" stroke-width="3" d="M121.856+160.783L125.489+162.435" fill="none" stroke-linecap="round" opacity="1" stroke-linejoin="round"/>
<path stroke="#ffffff" stroke-width="3" d="M125.66+162.169L128.781+172.772" fill="none" stroke-linecap="round" opacity="1" stroke-linejoin="round"/>
<path stroke="#ffffff" stroke-width="3" d="M127.9+150.167C127.9+150.167+133.928+142.955+135.937+147.511C137.946+152.067+135.937+168.39+135.937+168.39" fill="none" stroke-linecap="round" opacity="1" stroke-linejoin="round"/>
<path stroke="#ffffff" stroke-width="3" d="M127.876+151.352L129.083+156.088" fill="none" stroke-linecap="round" opacity="1" stroke-linejoin="round"/>
<path stroke="#ffffff" stroke-width="3" d="M128.952+156.321L131.181+156.388" fill="none" stroke-linecap="round" opacity="1" stroke-linejoin="round"/>
<path stroke="#ffffff" stroke-width="3" d="M132.637+155.841L135.378+168.643" fill="none" stroke-linecap="round" opacity="1" stroke-linejoin="round"/>
<path stroke="#ffffff" stroke-width="3" d="M186.05+159.758C186.05+159.758+173.856+154.126+173.364+158.89C172.873+163.653+182.954+164.045+182.477+170.012C182+175.98+169.777+169.426+169.777+169.426" fill="none" stroke-linecap="round" opacity="1" stroke-linejoin="round"/>
<path stroke="#ffffff" stroke-width="3" d="M179.234+153.943L171.997+174.804" fill="none" stroke-linecap="round" opacity="1" stroke-linejoin="round"/>
<path stroke="#ffffff" stroke-width="3" d="M183.135+155.485L175.899+176.346" fill="none" stroke-linecap="round" opacity="1" stroke-linejoin="round"/>
<path stroke="#ffffff" stroke-width="2" d="M191.561+137.971C191.422+138.364+191.694+139.48+191.712+139.725C191.828+141.277+191.793+142.864+191.82+144.42C191.834+145.246+191.83+146.072+191.852+146.898C191.861+147.229+191.759+146.792+191.707+146.681" fill="none" stroke-linecap="round" opacity="1" stroke-linejoin="round"/>
<path stroke="#ffffff" stroke-width="2" d="M188.464+138.238C187.327+138.605+189.599+138.746+189.81+138.733C190.142+138.713+190.473+138.682+190.802+138.628C191.384+138.533+191.962+138.404+192.542+138.287C193.492+138.097+194.416+137.923+195.392+137.959C195.875+137.977+195.515+137.92+195.295+137.91" fill="none" stroke-linecap="round" opacity="1" stroke-linejoin="round"/>
<path stroke="#ffffff" stroke-width="2" d="M197.239+140.468C197.241+140.452+197.017+141.253+196.975+141.533C196.794+142.76+196.65+143.949+196.588+145.188C196.58+145.34+196.507+147.167+196.722+146.805" fill="none" stroke-linecap="round" opacity="1" stroke-linejoin="round"/>
<path stroke="#ffffff" stroke-width="2" d="M199.367+146.495C198.987+146.878+199.61+144.042+199.621+143.974C199.795+142.795+200.009+141.377+199.567+140.233C199.535+140.151+199.694+140.349+199.723+140.431C199.887+140.894+199.736+140.674+199.901+141.248C200.08+141.874+200.418+142.606+201.107+142.593C202.279+142.57+202.844+141.258+203.192+140.22C203.272+139.982+203.528+139.664+203.37+139.483C203.261+139.357+203.297+139.828+203.284+140.003C203.278+140.08+203.231+141.375+203.23+141.416C203.174+143.018+203.03+144.627+203.025+146.229C203.024+146.828+203.053+147.004+203.068+147.542C203.071+147.638+203.091+147.905+203.041+147.827C202.941+147.668+202.927+147.457+202.874+147.27" fill="none" stroke-linecap="round" opacity="1" stroke-linejoin="round"/>
<path stroke="#ffffff" stroke-width="2" d="M205.972+140.821C204.84+141.75+204.678+145.983+205.74+147.072C206.417+147.765+207.419+147.597+208.213+147.381C208.582+147.281+208.752+147.163+209.081+146.948C209.163+146.894+209.412+146.775+209.318+146.768C209.21+146.76+209.102+146.742+208.994+146.731" fill="none" stroke-linecap="round" opacity="1" stroke-linejoin="round"/>
<path stroke="#ffffff" stroke-width="2" d="M205.455+143.553C205.598+142.774+207.236+142.82+207.734+142.884C207.911+142.907+208.087+142.939+208.262+142.977C208.362+142.999+208.638+143.121+208.536+143.132C208.451+143.14+208.368+143.099+208.283+143.082" fill="none" stroke-linecap="round" opacity="1" stroke-linejoin="round"/>
<path stroke="#ffffff" stroke-width="2" d="M205.617+140.97C206.385+139.987+207.416+139.543+208.655+139.656C209.55+139.738+210.494+139.791+210.363+140.158" fill="none" stroke-linecap="round" opacity="1" stroke-linejoin="round"/>
<path stroke="#ffffff" stroke-width="2" d="M198.216+151.434C198.609+150.759+197.281+151.275+197.106+151.388C196.512+151.77+195.946+152.59+195.942+153.395C195.928+156.515+200.254+155.663+201.399+154.082C202.514+152.544+201.113+150.335+199.573+150.285C199.177+150.272+198.277+150.344+197.995+150.713C197.812+150.951+197.986+151.828+198.216+151.434Z" fill="none" stroke-linecap="round" opacity="1" stroke-linejoin="round"/>
<path stroke="#ffffff" stroke-width="2" d="M203.883+151.109C203.909+150.96+203.743+150.834+203.732+150.954C203.671+151.623+204.191+152.195+204.427+152.813C204.814+153.826+205.132+155.117+205.709+156.021C205.761+156.103+205.75+155.501+205.795+155.191C205.838+154.899+206.001+154.498+206.097+154.262C206.527+153.202+207.027+152.204+207.589+151.227C207.75+150.947+208.205+150.091+208.047+150.372" fill="none" stroke-linecap="round" opacity="1" stroke-linejoin="round"/>
<path stroke="#ffffff" stroke-width="2" d="M210.208+151.413C209.138+151.229+209.563+155.467+209.97+156.096C210.557+157.001+211.584+156.368+212.276+156.059C212.3+156.048+212.721+155.848+212.82+155.805C212.824+155.803+212.835+155.803+212.831+155.805C212.684+155.857+212.583+155.866+212.432+155.873" fill="none" stroke-linecap="round" opacity="1" stroke-linejoin="round"/>
<path stroke="#ffffff" stroke-width="2" d="M209.518+154.175C208.795+153.641+211.938+153.269+212.314+153.494C212.379+153.533+212.17+153.531+212.098+153.55" fill="none" stroke-linecap="round" opacity="1" stroke-linejoin="round"/>
<path stroke="#ffffff" stroke-width="2" d="M209.798+151.698C210.736+150.727+212.461+148.98+213.628+150.322" fill="none" stroke-linecap="round" opacity="1" stroke-linejoin="round"/>
<path stroke="#ffffff" stroke-width="2" d="M215.11+152.336C215.888+152.947+214.647+155.733+215.336+156.752C215.438+156.903+215.276+156.111+215.245+155.761C215.189+155.13+215.194+154.728+215.266+154.082C215.426+152.653+215.769+151.208+216.683+150.167C216.903+149.917+217.554+149.441+217.723+149.783C218.219+150.792+217.84+152.247+217.13+153.029C217.118+153.043+215.864+153.888+215.864+153.698C215.864+153.238+216.786+153.839+216.807+153.859C217.214+154.254+217.286+154.438+217.723+154.801C218.548+155.486+219.158+155.852+220.147+156.263C220.383+156.361+220.633+156.408+220.88+156.461C220.995+156.486+221.345+156.475+221.23+156.498C221.18+156.509+220.811+156.486+220.804+156.486" fill="none" stroke-linecap="round" opacity="1" stroke-linejoin="round"/>
<path stroke="#ffffff" stroke-width="2" d="M141.343+146.592C141.35+146.95+141.479+145.638+141.498+145.51C141.618+144.697+141.766+143.881+141.85+143.06C141.869+142.873+141.713+142.424+141.882+142.495C142.945+142.938+144.035+143.289+145.098+143.732C145.539+143.915+145.729+144.02+146.118+144.212C146.242+144.273+146.49+144.5+146.5+144.36C146.563+143.525+145.757+142.324+145.516+141.547C145.152+140.374+144.827+139.154+144.589+137.952C144.481+137.408+144.718+135.685+144.724+135.741" fill="none" stroke-linecap="round" opacity="1" stroke-linejoin="round"/>
<path stroke="#ffffff" stroke-width="2" d="M147.735+140.334C146.987+139.585+147.505+141.633+147.73+142.055C147.977+142.515+148.458+142.796+148.872+143.095C149.307+143.409+149.888+143.323+150.4+143.36C150.943+143.398+151.25+142.666+151.529+142.191C152.289+140.896+151.641+138.813+150.809+137.655C149.572+135.931+147.379+137.714+147.357+139.361C147.353+139.704+147.978+140.577+147.735+140.334Z" fill="none" stroke-linecap="round" opacity="1" stroke-linejoin="round"/>
<path stroke="#ffffff" stroke-width="2" d="M146.914+149.879C146.841+149.882+147.452+150.116+147.588+150.239C148.25+150.834+148.855+151.525+149.463+152.182C149.665+152.401+150.288+152.762+150.035+152.87C149.866+152.942+150.071+152.476+150.132+152.294C150.292+151.826+150.467+151.364+150.647+150.904C150.776+150.574+151.773+146.964+151.601+148.26" fill="none" stroke-linecap="round" opacity="1" stroke-linejoin="round"/>
<path stroke="#ffffff" stroke-width="2" d="M150.586+149.552C150.267+149.688+153.412+151.73+154.006+152.003C154.182+152.083+154.482+151.952+154.561+152.138C154.663+152.377+154.444+151.619+154.484+151.369C154.567+150.85+154.556+150.312+154.556+149.779C154.555+148.752+154.241+147.462+154.623+146.494" fill="none" stroke-linecap="round" opacity="1" stroke-linejoin="round"/>
<path stroke="#ffffff" stroke-width="2" d="M156.615+148.053C156.571+148.362+156.3+149.234+156.711+149.58C157.327+150.098+157.995+150.601+158.735+150.848C159.843+151.219+161.067+149.334+160.835+148.32C159.71+143.414+153.899+146.911+157.447+149.646" fill="none" stroke-linecap="round" opacity="1" stroke-linejoin="round"/>
<path stroke="#ffffff" stroke-width="2" d="M161.609+145.528C162.007+145.895+162.143+146.643+162.369+147.152C162.549+147.558+162.723+147.967+162.896+148.376C163.067+148.778+163.42+149.594+163.415+149.508C163.382+148.832+162.726+148.052+162.43+147.48C161.784+146.23+161.788+144.603+162.504+143.494C162.573+143.387+162.666+143.275+162.787+143.245C163.443+143.078+164.347+143.939+164.266+144.641C164.144+145.71+163.099+146.023+162.76+146.9C162.737+146.959+162.75+147.046+162.795+147.092C163.31+147.632+166.24+147.955+166.994+147.989C167.063+147.992+167.74+148.01+167.779+147.897" fill="none" stroke-linecap="round" opacity="1" stroke-linejoin="round"/>
<path stroke="#ffffff" stroke-width="2" d="M166.408+143.439C166.28+143.185+166.741+143.899+166.898+144.136C167.016+144.313+167.148+144.481+167.255+144.665C167.901+145.776+168.772+147.165+169.148+148.427C169.264+148.82+168.773+147.696+168.634+147.31C168.509+146.961+168.356+146.48+168.361+146.099C168.379+144.804+168.961+143.314+170.205+142.93C171.128+142.645+169.586+144.458+169.513+144.542C169.236+144.858+168.884+145.24+168.65+145.624C168.593+145.716+168.485+145.91+168.587+145.952C169.764+146.441+171.477+145.712+172.732+145.915C173.07+145.97+173.959+145.96+173.727+146.208" fill="none" stroke-linecap="round" opacity="1" stroke-linejoin="round"/>
</g>
</svg>
